<mxfile host="app.diagrams.net" modified="2024-05-02T13:38:08.688Z" agent="Mozilla/5.0 (Windows NT 10.0; Win64; x64) AppleWebKit/537.36 (KHTML, like Gecko) Chrome/124.0.0.0 Safari/537.36" etag="rNK5rCinKCTyL_OsPaHN" version="24.3.1" type="device" pages="2">
  <diagram name="Trang-1" id="RYM3hHh9hnx0T7XR3yq3">
    <mxGraphModel dx="468" dy="1738" grid="1" gridSize="10" guides="1" tooltips="1" connect="1" arrows="1" fold="1" page="1" pageScale="1" pageWidth="827" pageHeight="1169" math="0" shadow="0">
      <root>
        <mxCell id="0" />
        <mxCell id="1" parent="0" />
        <mxCell id="M9lN1j8nIpVK2P2cfgTe-1" value="&lt;font style=&quot;font-size: 19px;&quot;&gt;Nhập 1 số nguyên n. In ra n bình phương&lt;/font&gt;" style="text;strokeColor=none;fillColor=none;html=1;fontSize=24;fontStyle=1;verticalAlign=middle;align=center;" vertex="1" parent="1">
          <mxGeometry x="364" y="-1150" width="100" height="40" as="geometry" />
        </mxCell>
        <mxCell id="M9lN1j8nIpVK2P2cfgTe-10" style="edgeStyle=orthogonalEdgeStyle;rounded=0;orthogonalLoop=1;jettySize=auto;html=1;exitX=0.5;exitY=1;exitDx=0;exitDy=0;" edge="1" parent="1" source="M9lN1j8nIpVK2P2cfgTe-2" target="M9lN1j8nIpVK2P2cfgTe-5">
          <mxGeometry relative="1" as="geometry" />
        </mxCell>
        <mxCell id="M9lN1j8nIpVK2P2cfgTe-2" value="" style="ellipse;whiteSpace=wrap;html=1;" vertex="1" parent="1">
          <mxGeometry x="354" y="-1090" width="120" height="80" as="geometry" />
        </mxCell>
        <mxCell id="M9lN1j8nIpVK2P2cfgTe-3" value="Start" style="text;strokeColor=none;fillColor=none;html=1;fontSize=24;fontStyle=1;verticalAlign=middle;align=center;" vertex="1" parent="1">
          <mxGeometry x="364" y="-1070" width="100" height="40" as="geometry" />
        </mxCell>
        <mxCell id="M9lN1j8nIpVK2P2cfgTe-11" style="edgeStyle=orthogonalEdgeStyle;rounded=0;orthogonalLoop=1;jettySize=auto;html=1;exitX=0.5;exitY=1;exitDx=0;exitDy=0;entryX=0.5;entryY=0;entryDx=0;entryDy=0;" edge="1" parent="1" source="M9lN1j8nIpVK2P2cfgTe-5" target="M9lN1j8nIpVK2P2cfgTe-7">
          <mxGeometry relative="1" as="geometry" />
        </mxCell>
        <mxCell id="M9lN1j8nIpVK2P2cfgTe-5" value="&lt;font style=&quot;font-size: 21px;&quot;&gt;Input n&amp;nbsp;&lt;/font&gt;" style="shape=parallelogram;perimeter=parallelogramPerimeter;whiteSpace=wrap;html=1;fixedSize=1;" vertex="1" parent="1">
          <mxGeometry x="354" y="-990" width="120" height="60" as="geometry" />
        </mxCell>
        <mxCell id="M9lN1j8nIpVK2P2cfgTe-12" style="edgeStyle=orthogonalEdgeStyle;rounded=0;orthogonalLoop=1;jettySize=auto;html=1;exitX=0.5;exitY=1;exitDx=0;exitDy=0;entryX=0.5;entryY=0;entryDx=0;entryDy=0;" edge="1" parent="1" source="M9lN1j8nIpVK2P2cfgTe-7" target="M9lN1j8nIpVK2P2cfgTe-8">
          <mxGeometry relative="1" as="geometry" />
        </mxCell>
        <mxCell id="M9lN1j8nIpVK2P2cfgTe-7" value="&lt;font style=&quot;font-size: 20px;&quot;&gt;result = n * n&amp;nbsp;&lt;/font&gt;" style="rounded=0;whiteSpace=wrap;html=1;" vertex="1" parent="1">
          <mxGeometry x="341" y="-900" width="146" height="100" as="geometry" />
        </mxCell>
        <mxCell id="M9lN1j8nIpVK2P2cfgTe-13" style="edgeStyle=orthogonalEdgeStyle;rounded=0;orthogonalLoop=1;jettySize=auto;html=1;exitX=0.5;exitY=1;exitDx=0;exitDy=0;entryX=0.5;entryY=0;entryDx=0;entryDy=0;" edge="1" parent="1" source="M9lN1j8nIpVK2P2cfgTe-8" target="M9lN1j8nIpVK2P2cfgTe-9">
          <mxGeometry relative="1" as="geometry" />
        </mxCell>
        <mxCell id="M9lN1j8nIpVK2P2cfgTe-8" value="&lt;font style=&quot;font-size: 21px;&quot;&gt;Output&amp;nbsp;&lt;/font&gt;&lt;div&gt;&lt;font style=&quot;font-size: 21px;&quot;&gt;result.&lt;/font&gt;&lt;/div&gt;" style="shape=parallelogram;perimeter=parallelogramPerimeter;whiteSpace=wrap;html=1;fixedSize=1;" vertex="1" parent="1">
          <mxGeometry x="336" y="-770" width="156" height="120" as="geometry" />
        </mxCell>
        <mxCell id="M9lN1j8nIpVK2P2cfgTe-9" value="&lt;font style=&quot;font-size: 24px;&quot;&gt;End&lt;/font&gt;" style="ellipse;whiteSpace=wrap;html=1;" vertex="1" parent="1">
          <mxGeometry x="354" y="-620" width="120" height="80" as="geometry" />
        </mxCell>
      </root>
    </mxGraphModel>
  </diagram>
  <diagram id="xTti2ramOOB_0n96um1B" name="Trang-2">
    <mxGraphModel dx="1173" dy="624" grid="1" gridSize="10" guides="1" tooltips="1" connect="1" arrows="1" fold="1" page="1" pageScale="1" pageWidth="827" pageHeight="1169" math="0" shadow="0">
      <root>
        <mxCell id="0" />
        <mxCell id="1" parent="0" />
        <mxCell id="aXWtiPuf8VlUQZJlVPBF-7" style="edgeStyle=orthogonalEdgeStyle;rounded=0;orthogonalLoop=1;jettySize=auto;html=1;exitX=0.5;exitY=1;exitDx=0;exitDy=0;entryX=0.5;entryY=0;entryDx=0;entryDy=0;" edge="1" parent="1" source="aXWtiPuf8VlUQZJlVPBF-2" target="aXWtiPuf8VlUQZJlVPBF-4">
          <mxGeometry relative="1" as="geometry" />
        </mxCell>
        <mxCell id="aXWtiPuf8VlUQZJlVPBF-2" value="&lt;font style=&quot;font-size: 27px;&quot;&gt;Start&amp;nbsp;&lt;/font&gt;" style="ellipse;whiteSpace=wrap;html=1;" vertex="1" parent="1">
          <mxGeometry x="340" y="120" width="160" height="110" as="geometry" />
        </mxCell>
        <mxCell id="aXWtiPuf8VlUQZJlVPBF-9" style="edgeStyle=orthogonalEdgeStyle;rounded=0;orthogonalLoop=1;jettySize=auto;html=1;entryX=0.5;entryY=0;entryDx=0;entryDy=0;" edge="1" parent="1" source="aXWtiPuf8VlUQZJlVPBF-3" target="aXWtiPuf8VlUQZJlVPBF-5">
          <mxGeometry relative="1" as="geometry" />
        </mxCell>
        <mxCell id="aXWtiPuf8VlUQZJlVPBF-3" value="&lt;font style=&quot;font-size: 19px;&quot;&gt;Area = Lenghth * Width&lt;/font&gt;&lt;div style=&quot;font-size: 19px;&quot;&gt;&lt;font style=&quot;font-size: 19px;&quot;&gt;Perimeter = (Length + Width) * 2&amp;nbsp;&lt;/font&gt;&lt;/div&gt;" style="rounded=0;whiteSpace=wrap;html=1;" vertex="1" parent="1">
          <mxGeometry x="270.5" y="455" width="287" height="145" as="geometry" />
        </mxCell>
        <mxCell id="aXWtiPuf8VlUQZJlVPBF-8" style="edgeStyle=orthogonalEdgeStyle;rounded=0;orthogonalLoop=1;jettySize=auto;html=1;exitX=0.25;exitY=1;exitDx=0;exitDy=0;" edge="1" parent="1" source="aXWtiPuf8VlUQZJlVPBF-4" target="aXWtiPuf8VlUQZJlVPBF-3">
          <mxGeometry relative="1" as="geometry" />
        </mxCell>
        <mxCell id="aXWtiPuf8VlUQZJlVPBF-4" value="&lt;font style=&quot;font-size: 22px;&quot;&gt;Input Length, Width&lt;/font&gt;" style="shape=parallelogram;perimeter=parallelogramPerimeter;whiteSpace=wrap;html=1;fixedSize=1;" vertex="1" parent="1">
          <mxGeometry x="340" y="300" width="160" height="100" as="geometry" />
        </mxCell>
        <mxCell id="aXWtiPuf8VlUQZJlVPBF-10" style="edgeStyle=orthogonalEdgeStyle;rounded=0;orthogonalLoop=1;jettySize=auto;html=1;exitX=0.5;exitY=1;exitDx=0;exitDy=0;" edge="1" parent="1" source="aXWtiPuf8VlUQZJlVPBF-5" target="aXWtiPuf8VlUQZJlVPBF-6">
          <mxGeometry relative="1" as="geometry" />
        </mxCell>
        <mxCell id="aXWtiPuf8VlUQZJlVPBF-5" value="&lt;font style=&quot;font-size: 21px;&quot;&gt;Output Area, Perimeter&lt;/font&gt;" style="shape=parallelogram;perimeter=parallelogramPerimeter;whiteSpace=wrap;html=1;fixedSize=1;" vertex="1" parent="1">
          <mxGeometry x="334" y="670" width="160" height="100" as="geometry" />
        </mxCell>
        <mxCell id="aXWtiPuf8VlUQZJlVPBF-6" value="&lt;font style=&quot;font-size: 27px;&quot;&gt;End&lt;/font&gt;" style="ellipse;whiteSpace=wrap;html=1;" vertex="1" parent="1">
          <mxGeometry x="334" y="820" width="160" height="110" as="geometry" />
        </mxCell>
        <mxCell id="aXWtiPuf8VlUQZJlVPBF-13" value="&lt;span style=&quot;color: rgb(29, 28, 29); font-family: Slack-Lato, Slack-Fractions, appleLogo, sans-serif; font-size: 22px; font-style: normal; font-variant-ligatures: common-ligatures; font-variant-caps: normal; font-weight: 400; letter-spacing: normal; orphans: 2; text-align: left; text-indent: 0px; text-transform: none; widows: 2; word-spacing: 0px; -webkit-text-stroke-width: 0px; white-space: normal; background-color: rgb(248, 248, 248); text-decoration-thickness: initial; text-decoration-style: initial; text-decoration-color: initial; float: none; display: inline !important;&quot;&gt;Nhập vào chiều dài, chiều rộng của Hình chữ nhật. In ra chu vi, diện tích.&lt;/span&gt;" style="text;whiteSpace=wrap;html=1;fontSize=22;" vertex="1" parent="1">
          <mxGeometry x="50" y="40" width="720" height="40" as="geometry" />
        </mxCell>
      </root>
    </mxGraphModel>
  </diagram>
</mxfile>
